<?xml version="1.0" encoding="UTF-8"?>
<svg id="Layer_2" xmlns="http://www.w3.org/2000/svg" version="1.1" viewBox="0 0 2048 2048">
  <!-- Generator: Adobe Illustrator 29.8.1, SVG Export Plug-In . SVG Version: 2.1.1 Build 2)  -->
  <defs>
    <style>
      .st0 {
        fill: #efdfb1;
      }

      .st1 {
        fill: #23190e;
      }
    </style>
  </defs>
  <g id="Layer_1-2">
    <path class="st0" d="M274.3,0h1532.9c132.9,0,240.9,107.9,240.9,240.9v1566.3c0,132.9-107.9,240.9-240.9,240.9H239.8c-132.3,0-239.8-107.4-239.8-239.8V274.3C0,122.9,122.9,0,274.3,0Z"/>
    <path class="st1" d="M1822,2048v-.2c-3.3.1-6.6.2-9.9.2h9.9Z"/>
    <path class="st1" d="M1879.6,1813.9c-31-4.9-61.4-15.9-90.4-28.6-6.8-2.9-13.1-6.8-19.8-9.7-18.7-35.3-31.8-73.4-49-109.5-1.8-6.2,2.7-11.6,2.5-17.8-7.8-26.2-27.6-53.4-33-79.8-4.1-19.7-8.7-33.9-20.2-50.8-7.5-11-3.7-18.1-4.6-30.4-2.8-41.2-28.9-106.5-65.6-128.4-2.9-1.7-8.9-2.3-9.4-5.1-6.3.8,3.9,5.8,4.9,6.6,36.1,31,52.6,81.1,59.1,125.9.5,3.3.6,14.8,0,17.9-1.1,5.8-15.4,7.2-20.4,7.6-11.1.7-30.9.2-42.1-1-1.4-.1-12-2.7-10-4,1.4-.9,7.3-3,9.3-3.7,2.3-.8,7.1.6,6-3.6-1.1-3.9-14.5-18.9-18-24-21.4-30.4-31.7-57.8-68.2-75.8-1.9-1-3.4-.9-5.4-1.1-3.5-2.2,5.1-25.1,6.8-29.4,3.3-8.4,8.2-18.5,12.6-26.4,1.7-3,7.3-7.3,5.9-11-2.3-6.3-5.1-4.1-8.5-.6-19.4,19.7-37.9,71.3-43.7,98.3-.8,3.5-3.1,14.8-2.9,17.7,0,1.2.5,1.9,1.4,2.6,4.6,4,16.5,7.3,22.2,10.5,18.8,10.9,37.9,32.1,43.8,53.2,1.3,4.8-.5,10.3,6.2,12.8,27.4,1.8,55.1,3.5,82.6,2.5,10.5-.4,22.1-4.4,32.9-1.2,1.2,5.8,16.3,31.4,10.9,35.2-1.2.8-23.7.1-26.9,0-29.2-1.8-75.6-7.9-102.4-17.6-4.3-1.5-8.4-3.3-12.4-5.4-5.2-17.4-7.5-33.7-16.3-50-7.5-13.9-15.2-21-29.9-27.1-9.7-4.1-20.9-7.6-31.4-7.1l-.8-2.5c1.4-28.9,4.1-58.8,12-86.6,4.4-15.4,12.8-32.7,15.8-48.2.2-1.1,1.6-1-.7-2.6-2.1-.4-4.9,5.1-7.2,5.8-17.3,5.2-34.8,5.8-52.7,8.3-20.8,2.9-44.3,8.3-65.1,7.9-14.1-.3-19.4-10.8-29.3-13.8-2-.6-4,0-6-.6-1.1-.3-10.8-16.7-13.2-19.2-23.1-24.5-79-27.8-105.1-7-8.3,6.6-15.2,16.9-25,22.5-.2-1.8-.1-3.3.5-4.9.6-1.5,11.5-14.9,13.5-17.5,2.4-3.2,6.9-4.8,6-9.5-2.9-1.5-7,1.9-8.3,1.8-10.2-.9-28.7-12.1-38.8-16.2-11.7-4.8-23.9-8.5-35.4-13.6-11.8-5.2-22.8-12.5-35-17.1-.9,0-1.7.2-2.5.6-10,4.8-20.1,31.4-25.6,41.4l-3.5,1c3.4-31.1,18.7-63.8,46.1-80.4,3.9-2.3,24.2-10.7,24.6-13.1,0-.4-.4-1.3-.7-1.8-5.6-8.4-33.6-3.3-43.5-4.8-8.7-1.3-35.4-18.1-41-25-6.2-7.7-9.5-19-17.6-25.5l-1.3-.3c-2.5,1.6-5.8,4.6-9,3.7-1.1-.3-13.7-11.5-15.3-13.2-9.1-10.3-8.7-15.4-11.5-28.1-3-13.9-14.5-18.8-18-27-1.8-4.3-2-12.2-3.4-15.6-.9-2.1-9-9.7-10.9-13.1-2.9-5.1-2.8-10.5-4.7-15.3-3-7.7-19.2-21.2-17.9-29,.2-1.5,1.7-2.6,1.9-4.1,4.1-24.8-27.4-58.2-37.1-80.8-21.1-33.1-46.4-53.5-78.9-75.1-4.1-2.7-9-4.5-13.2-7.6-10.6-8.1-15.2-21.8-26.9-30.4-7.8-5.7-12.8-3.5-21.3-4.7-5.2-.7-20.6-10.9-25.5-14.5-15.3-11-13.4-11.4-7.5-28.4,11.6-33.4,30.5-60.3,34.4-96.6,5-45.6,1.8-86-11.3-129.7-7-23.4-19.5-46-36.7-63.3-2.2-2.7-19.2-18-20.5-17.5-1.1,1.8-2.9,5.1-2.1,7,.4.9,7.8,9.5,9.2,10.9,15.5,16.8,26.6,31.5,36.2,52.8,3.3,7.2,7.2,16.5,7.7,24.3-3.7-4.3-6-8.8-10.6-12.4-2.2-1.8-12-8.2-14.3-8.7-1.2-.3-1.1-1.5-2.6.7.1,2.4,25.3,32.1,28.8,38.2,9.6,16.4,10.3,45.9,9.2,64.8-.4,6.4-3.4,13-2,20-6,7.5-15.4,11.8-23.9,16.1-1.3.7-2,2.3-3.1,2.9-.6.3-8,2.5-8.5,2.5-1.6,0-3.2-1.6-5-1.9-37.2-5.4-87.9-16.9-123.4-30.6-2.2-.9-16.6-7.4-17.1-8.2-.4-.6-1.3-4.8-1-5.2,3.5-2.3,5.2.3,7.7.7,3.6.5,6.8.6,10.4,1.6,4.8,1.3,23.4,10.9,26.4,6.7-1.1-6.1-.1-12.4-.6-18.5-.5-6.9-2.6-24.8-5.5-30.5-.3-.5-5.1-6.4-5.4-6.6-3.7-1.9-5.1,1.1-7.6,1.5-16.5,2.5-33.3,1.4-49.7,4.3-.5,0-6.5,2-6.8,2.2-5.5,3.7,7.9,23.8,8.8,28.3.6,2.7-.4,5.8.7,8.3,1.9,4.2,14.9,12.9,17.5,17.5,3.2,5.6,1.8,7.2,8.5,12.5,12.2,9.8,65.5,27.1,83.1,32.9,15.1,5,37.2,12.9,52,15,5.5.8,11.4,0,16.3-2.6,3.7-1.9,13.4-9.9,17-13,1.7-1.5,1.7-4.2,5.1-3.4,1.7,1.8-3.3,13.6-4.3,16.2-6.7,17-16.8,32.8-23.3,50.7-12.7,34.9-17.6,83.1-40.5,111.5-3.8,4.7-7.8,7-12.5,10.6-3.3.5-2.7-9.9-2.4-12.4,4.5-36.6,20.6-72.2,30.1-107.9l16.9-41.5c-7.7-1.9-12.1,5.3-15.4,11.1-21.7,38.9-35.2,93.4-42.7,136.3-.5,2.9-2.2,5.5-2,8.5-1.8,1.8-11.8-3.1-14.2-4.2-29.4-14-79.9-49.9-104.3-71.7-5-4.5-12.5-6.9-11.4-15.9,1.6-2.5,9.4,1.8,11.2,3,17.8,12,35.2,28.8,53.2,40.8,2,1.4,10.6,6.8,12.5,5l-10-76c1-1,11.3,5.9,13.8-2.7,3.1-10.5-2.8-20.6-13.3-12.3-4.5,0-3.3-27.6-3.5-31.5-.1-5.6-1.2-11.3-1.1-17,.1-9.8,4.8-14-5.3-21.1-4-2.8-17-8.6-19.5-11.5-.6-.7.3-3.2-.7-4.8-.6-1.1-5.3-3.4-6.9-5.1-4.5-5-30.6-44.9-30.6-49.4v-19c0-.2,1.5-1.8,2-2,6.6-3.1,26.1,3,34.5,3.5,33.9,2.3,92.5-12.8,120-33.1,3.2-2.4,6-8.7,9.4-2.1,8.1,15.8,11.1,39.3,15.1,56.7l2,37,2,1.5c-.5-3.1,1.6-5.8,1.9-8.6,7.2-57.3-2.8-156.7-48.4-197.4-16.5-14.7-33.3-21.5-55-24-12.5-1.4-33.9,4.1-45.7,9.2-5,2.2-9.5,5.1-14.3,7.7-2.2-.5-.3-9.7-.5-12.5-1.6-24.9.2-47,4.8-71.2,5.3-28.5,11.1-56.9,17.1-85.9,9.2-43.9,33.3-74.8,71.3-98.4,11.8-13,24.4-23.9,35.8-35.5,30.4-31.1,59.3-68.1,94.6-92.9,11-7.7,19.5-12,33.9-14.6,1.8-.3,4.1,1.4,3.5-2H235.9C105.6,0,0,105.6,0,235.9v1576.2c0,84.1,44,157.8,110.2,199.6,16.5-27,34.3-54.1,51.2-80.9,43.4-68.6,86.5-137.2,129.6-205.4,33.8-53.5,69.3-106.5,102.4-160.6,1.9-3.1,6.8-14.6,8.1-15.9,3.2-3.3,18.3,5,18.5,8.5.3,5-13.6,30.2-17,36.1-18.4,31.7-40.8,64.8-59.9,95.3-69.5,111.5-139.5,223.5-210.2,335.6,2,1,4,1.9,6,2.8,1-1.3,2-2.6,2.8-3.9,98.2-146,193.7-294.5,290-442.2,3.8-5.8,5.4-14.3,12.7-18,5.6-2.9,24.5,0,30.9,1.8,1.1.3,1.8-.7,1.4,1.5l-306.9,472.2c20.9,6.1,43,9.3,65.8,9.3h735.1c-.4-3.7-6.3-5.8-8-7.4-2.4-2.2-12.5-13.9-12.8-16.3-.4-2.7,6.8-11.3,9.6-12,8.2-2,12,8.3,16.3,13.2,3.6,4.1,7.1,8.4,10.6,12.4,2.8,3.3,6.9,6.4,9.4,10.1h100c-27.5-37.5-55.5-74.5-82-112.5-5.5-7.9-12.4-15.2-17.2-23.8-1.9-3.4-7.5-15-6.3-17.7,2.1-4.8,6.5-1.8,10-1.9,10.8-.5,21.3-2.4,31,3.9,17.8,11.6,30.3,37.1,41.4,54.8,19,30.3,37.9,61.5,56.6,92.2.9,1.5,1.2,3.2,1.6,4.9h35l-6.6-12.9c-23-37.7-45.2-76.4-67.5-114.3-6.6-11.1-19-26.5-22.6-39.6-2.5-9.3,1.4-9.1,4.7-16.7,8.6-19.2,15-51.6,19.7-72.3.7-3.1-.7-6.2,2.7-8.2,5.5,7.5,11.7,14.4,16.9,22.1,29.8,43.7,50.3,92.3,72.4,138.8l49.1,103.2h545c-2.3-7.3-4.7-14.8-7.6-21.9-11.4-27.2-29.2-57.1-44.4-82.6-2.1-3.5-6.2-5.3-4.3-9.2,1.1-2.3,3-1.4,4.8-.3,3.5,2.1,12.1,12,14.3,15.7,15.5,25.8,26.2,54.9,41.6,81l12.6,17.4h15.1c3.3,0,6.6,0,9.9-.2-.1-2.9,4.4-3,5.5-4.8,1.9-3-3.9-6.6-5.5-8.8-12.6-17.2-24.7-44.7-35.9-64.1-31.1-53.8-65.7-105.2-97.5-158.3-8.4-14-17.3-28.4-25.4-42.6-15.8-27.6-40.7-90.1-63.2-107.8-6.1-4.8-14-6.1-19-12,0-1.9,7.1-1.7,8.6-1.6,3.1.3,4.1,1.7,6,2,33.5,5.8,68.3,14.3,101.9,19.1,5.1.7,10.4-.9,15.5,2.5,4.8,3.2,15.9,27.4,19.1,33.9,32.2,66.4,62.5,133.1,97.6,198.4,10.1,18.8,33.2,56.8,50.8,68.2,3.4,2.2,8.2,2,10.4,6.6.2,1.2-2,3.2-2.9,3.9-14.4,11.2-31.1,35.4-39.9,51.3-2,3.6-4.1,8.1-5.5,12.2,12.3-1.6,24.3-4.1,35.9-7.6,8-10.9,22-26.3,24.9-26.1,5.7,2.5,10.5,6.2,14.9,10.4,65.7-33.2,113.8-96.3,126.4-171.5-15.7-12.9-33.1-24.7-52.6-31-36.7-11.8-75.1-.4-112.6-6.4h0ZM1067.5,1270c1.5,1,15.4,15.2,14.5,16-1.8,1.4-18.5-9.7-18.8-12.5,0-1,2.1-5,4.3-3.5ZM984,1246.5c5.5-16.7,23.8-44.1,38.4-54.1,5.2-3.6,12-6.9,18.6-7.4l-.7,3c-2.3.6-4.8,1.7-6.8,3-17.7,12-40.2,37.4-47.2,57.8-1.2,3.6-1.9,7.5-2.8,11.2-3.4-3.9-.9-9.4.5-13.5h0ZM982.2,1471.3c2.8,13.9,5.5,25.5,3.8,40.3-.5,3.9-3.2,7.6-2.2,12.3l-2.8,1.2c-2.4-8.2-3.8-16.8-6.5-25-2.8-8.3-11.6-24.2-12.5-31.5-.2-1.9-.3-4.5,1-6.1.5-.6,13.7-6.4,14.6-6.5,4.9-.5,3.8,10.8,4.7,15.3h0ZM707,1473.5c-1.2-5.4-3.1-11.9-4-17-.4-2.5,1-8.6-1.7-9.4-1.3-.4-3.3,1-4.9.9-50.1-2.9-99.7-9.2-148-17.1-31.2-5.1-61.5-11.9-92-22-1.5-.5-2.2-1.4-3.5-2,0,1.8-.9,3.5-.9,5.4.1,8.5,3.6,22.7,6.3,30.8,4.5,13.8,12,26.8,15.6,40.8-2,1.8-7.2-4.7-8.2-6.2-12.5-18.3-25.1-45.7-29.8-67.2-1-4.6-3.4-6.3-1.4-12.5.9-2.6,13.5-20.8,16-24,13.4-16.9,56.5-52.6,78-53,1.7,0,8.1.8,9.6,1.2,13,3.5,32.7,15,46.8,20.2,48.3,17.7,100.3,35.5,151.5,39.6,4.2.3,8.4.9,12.5,2,.3,1.5-.2,2.3-.9,3.5-2.9,4.4-9.8,10.4-13,14.9-12.8,17.7-20.7,37.8-24,59.1-.7,4.5.7,8.9-2.1,13.4-2.7.3-1.6,0-2-1.5h0ZM375.7,1347.8c-40.3-10-58.6-59.7-29.4-91.4,22.8-24.7,72.5-17.6,94.6,5.2,11.5,11.8,15.3,21.4,9.7,37.7-11.8,33.7-37.7,57.8-74.9,48.6h0ZM502,1027.5c-.4-18.1-.8-36.1-3.8-54.1,4-13.1,12.8-4.5,20.4.6,32.9,22.1,62.1,39.1,98.3,55.7,13.8,6.3,29.9,11.5,43.1,17.9,11.5,5.7,12.8,7.8,5.5,19.3-2.1,3.4-5.5,8.4-7.8,11.7-22,32-66,75.2-96.6,99.9-12.2,9.9-19,15.1-30,0-10.6-14.5-18-42.2-24.4-59.6-3.9-10.8-11.8-23.7-11.4-35.1.3-8.5,5.4-20.2,6.6-29.4,1.2-9.4.3-17.8,0-26.8h0ZM743,1343c1.6-6.5,9.4-5.3,14.3-6.2,1.3-.2,2.9-1.8,3.2-1.8h29.5c-1.9,6.9-16.6,3.4-23.4,4.1-5.2.5-12.9,3.4-18,4-1.8.2-3.8-.2-5.6,0ZM762.5,1398c8.6-5.6,14.5-4.9,23.9-6.1,24.8-3.2,53.2-2.8,78.3-2.5,12.7.1,25.6,1.2,38.3.6-3.7,11.9-15,18-22.4,27.1-11.9,14.4-20,31.8-31.3,46.7-3.1,4.1-6.7,8.1-10.3,11.8-3.6.6-3.6-3.3-5-5-7.5-8.7-19.5-8.4-30.2-10.8-15.3-3.3-30.5-7.1-46-10-3.4-.6-7.2-3.8-11.3-.8-4.2,3-2.9,7.6-5.3,11.6-.5.9.5,2-2.1,1.4-2.8-22.6,3.2-50.9,23.5-64h0ZM915.6,1317.9c3.4,7.4,15.1,23.3,22.5,26.5,3.9,1.7,8.4,2.2,12.8,4.2,3.8,1.7,7.3,5,11.2,6.8,2.7,1.2,11.3,1.8,8.5,5.7-1,1.4-21.8,3.3-25.8,4.2-14,3-28.6,12.5-43.2,9.7-2.3-.4-3.8-2.9-6-2.9s-4.7,3.2-8.9,2.9c-12.3-.8-16.7-13.7-21.3-22.8-.8-1.7-.9-4-1.9-6.1-4.3-8.5-10.6-13-12.2-23.8.3-16.2-.8-34.8.7-50.8.1-1.6.7-3,1-4.5.9,0,1.8-.2,2.7.2,1,.5,6.5,6.8,8.2,8.2,13.4,11.6,27.6,23,42.1,32.9,2.3,1.6,5.7,1.6,8,4.1,2.1,2.3.8,3.8,1.5,5.4h0ZM936.5,1437.4c-5.5-5.4-18-13.9-21.4-20.1-1.7-3.1,2.5-14.2,5.4-14.4,3.8-.3,24,14.7,27.9,18.1,5.1,4.4,9.5,9.9,14.5,14.5,2.8,2.5,12.9,7,9.8,12.3-.5.8-15.2,7.7-16.6,8-1.9.5-2.2.2-3.8-.8-4.7-2.8-11.5-13.3-15.9-17.6h0ZM946.9,1469.3l-16.4,14.7c-1.9-.4-5.7-10.6-7.1-12.9-8.4-13.1-21.6-22.8-31.2-34.4.4-1.3,1.7-2.2,2.3-3.2,3.2-5.3,7.4-10.2,14.5-6.9.6.3,9.3,7.4,10.5,8.5,7.3,6.5,18.7,19.3,25,27,1.8,2.2,4.6,4.7,2.4,7.3h0ZM871.6,1459.1c2.6-4.1,5.7-14.2,11.1-15,2-.3,9.6,5.4,11.3,7.3,1.4,1.6,1.6,3.4,2.3,4.2,5.1,5.7,29.9,30.8,29.4,36.9-4.5,4.9-11.5,7.2-15.3,12.5l-8.3-7.9c-8.2-2.7-17.2-3.1-25.4-5.4-3.3-.9-14.1-4.8-16.7-6.3-.9-.5-1.6-1.1-2-2.1,2.8-9.5,8.4-16.2,13.5-24.2h0ZM938,1512c-.7.7-13.5-4.4-15.6-4.9-2.1-.6-6.1,1.2-6.4-2.6,9.4-7.2,17.9-1.8,22,7.5h0ZM937.2,1494.8c.9-3.7,13.5-18.4,16.7-15.7.9.8,1.7,6.9,2.2,8.1.3.8,1.4.8,1.8,1.6,4.3,9.8,9.6,25.2,10.1,35.8,0,1.6,0,2.5-1.5,3.2-4-1.1-11.3-2.4-14-5.8-1.7-2.1-3.1-7.7-5-11-2.2-3.8-11.1-12.6-10.2-16.3h0ZM971,1096.4c.8.9,5.4,8.1,5,8.5-4,.8-4.7-4.4-8.5-4.1-2.3.2-3,2.6-4.6,3.5-3.6,1.8-16.5,7.6-19.7,8.3-6.1,1.3-11.3-2.9-15.7-6.8-4.8-4.2-11.2-11.1-10.5-17.9,10.2-1,22.9-11.5,33.2-8.8,2.7.7,18.5,14.4,20.8,17.2h0ZM951.2,1058.3c1.2,2.8.7,6,2.8,8.7l-42.4,14c-4-.2-10.4-6.9-13.1-10-1.4-1.6-9-11.2-9.5-12.4-3.2-6.7,5.1-4,9.5-4.7,11-1.7,21.4-5.5,32.1-8.5,7.7,1.9,17.3,4.8,20.7,12.9h0ZM931.5,1019c2.7,3.5,5.6,10.8,2.6,14.6-1.2,1.5-10.6,2.9-13.3,3.7-12.6,3.9-26.6,10.7-39.5,5.3-.5-.2-6.6-4.5-7.3-5.2-1.3-1.2-5-5.4-4.8-6.8.8-1,1.5-3,2.4-3.7,1.3-1.1,15.9-4,19.6-5.4,14.8-5.3,26.9-19.9,40.4-2.7h0ZM762.5,902c5.2-4.6,8.6-10.8,13.4-15.6,4.2-4.1,11.8-8.3,15-13,4.8-6.9,6.7-18.5,10.1-26.4,8-.7,13.8,6.1,20.5,9.3l3.6,3.9c32.1,20.6,54.3,50.2,70.1,84.8,3.2,7,9.6,32.1,14,35,3.1,2,6.6-.7,8.1,3.9,2.5,7.3-4.2,12-9.6,15.5-31.5,20-60.7,7.2-86.4-14.4-19.2-16.2-49-48.1-57.2-71.8-1-2.8-2.9-8.7-1.8-11.2h0ZM756.3,1013.8c2.8-16,5.3-31.9,7.8-48.2.3-2.1,3-4.5,2-7.5,2.1-.3,2.6.2,4,1.5,6,5.5,18.1,26.2,22.4,34.1,14.8,26.8,29.5,72.9,31.5,102.9.4,6.4-.3,13,0,19.5-1.7,1.9-9.1-11.3-10-12.5-14.3-18.8-31.7-35.8-48-53.1-2.2-2.3-6.8-5.1-8.6-7.4-6.9-8.3-2.9-19.4-1.1-29.3h0ZM735.5,1097c7.9,6.3,13.4,11.8,20.8,18.7,30.2,27.8,59.5,60.2,71.4,100.2,7.4,25,4.9,50.8-1.9,75.4-2.2,8-6.3,16.8-9.3,24.7-1,1.2-3.5,1.7-5.1,1.9-15,1.9-31.7-1.2-47,0-34.5,2.9-67.1,14.9-101.9,17.1-3.7.2-18,.6-20.5-.6-.7-.3-2.1-1.5-1.6-2.5l6.7-11.2c10.4-13.9,19.7-32.8,30.4-47.4,14-19.1,45.7-32.9,33-62.3-6.5-15-22.1-17.6-36.8-15.1-15.9,2.8-19.8,14.2-24.3,27.7-7.5,22.1-19.2,42.6-32.8,61.2-3.2,4.4-9.2,13.8-13.2,5.3-3.6-7.6-4-16.8-5.3-24.7-.3-1.6-1.7-2.8-2-5-.6-4.1-.3-15.2,1.2-18.9,1.1-2.7,11.5-14.2,14.2-17.2,32.5-35.8,68.2-69.4,94.1-111l19.6-22.9c3.9-2.4,7.7,4.2,10.5,6.5h0ZM658.5,952c23.4,1.8,34-.5,54.1-11.4,4.2-2.3,8.9-5,12.9-7.6,2.9-1.9,4.3-5.3,7.5-5,.1,11.6-5.5,21.2-8.7,31.8-9.6,31.1-13.8,39.8-31.7,66.3-3.6,5.3-1.9,9.8-11,9.8s-52-19.2-64.8-25.2c-27.6-12.9-55.1-27.6-80.3-44.7-16-10.9-34.6-23.2-44.5-40,1.9-1.4,28.6,8.4,34.5,9,11.3,1.1,17.2-1.7,26.9-3,31.7-4.4,72.5,17.5,105.1,20h0ZM519.8,864.3c1.2-.4,9-2.4,9.7-2.4,4.2-.2,15.8,6,19,9.1,7.2,7.1,11,21.6,10.5,31.5-.7,15.6-12.3,17.1-25.6,15.5-5.3-.6-13.9-6-18.1-9.4-17-13.9-19.3-36.6,4.4-44.3h0ZM398,682.5c8.7-9,24.4-29.5,27.5-41.5,4.1-15.6.6-31.8,2.4-47.6,5-42.8,16.1-79.6,41.6-115.4,28-39.3,78-64.9,126.1-47.7,36.1,12.9,66.4,43.6,72.3,83.2.4,2.8.3,6-1.5,8.4-.8,1.1-18,12.1-20.6,13.4-18.4,10-57.5,21.8-77.9,17.1-12-2.8-14.9-17.6-19.6-27.4-2.2-4.5-5.4-8.7-7.2-13-3.5-8.1-5-16.2-7.2-24.6,0-6.1,12.6-25.4,17.8-29.5,5.8-4.5,12.7-6.7,18.6-10.2,1.1-.6,5.9-4,5.6-5.2-.4-1.8-3.6-3.4-5.4-3.6-18.1-2.4-50.4,10.9-65,22.1-38.9,29.8-51.1,82.1-56.5,127.6-3.8,32.1,1.6,61.1-13.7,91.3-2.6,5.3-16.8,23-17.1,25.8-.4,3,4.8,4.9,7.3,5.3,8.5,1.2,23.4-1.9,31.7-4.2,11.7-3.3,22.6-10.2,34.3-12.7,1.8,3.2-3.5,6.4-6,8-27.1,17.2-68.4,27.3-96.4,6.4-14.7-11,.8-17.4,9-25.9h0ZM136,1062.6c-6.1,3-2.1-11-1.9-13,1.2-26.2,1.1-44.2,6.7-70.3,9.4-43.4,19.6-77.1,57.6-103.9,2.1-1.5,13.6-8.9,15.1-9.4,3.8-1.2-2.2,9.1-2.8,10.2-5.8,10-14.3,19.4-20.1,29.9-13.8,25-22.8,72.7-24.6,101.4-.9,13.9,2.7,12.5,13.9,9,15.6-4.9,29.4-11.1,45.6-15.4,5.4-1.4,27.8-4.5,30-8.1-.1-15.4-1-31-.6-46.5.6-24.6,2.5-53.9,15.7-75.3,5.8-9.4,14.5-19.1,25.1-21.9,37.3-10,80,3.2,115,18.6,11.6,5.1,45,21.2,53,28.5,1.7,1.5,8.4,12.6,9.3,15.2,9.9,28.6-2.7,72.7-21.5,95.6-7.1,8.7-30.1,28-41.2,28.6-12.6.7-40.4-13.1-54.2-17.3-69-21.2-152.7-14.4-209.2,33.1-2.8,2.4-8.7,9.9-11,11.1h0ZM158.5,1115c-1.3,1-6.3,4.1-7.5,3,0-15.8-7-31.9,3.5-46,1.3-1.8,15-13.4,16.2-13.8,2-.6,4.3,0,6.3-.2-1.3,4.2,1.6,7.2,2.1,10.4.8,6,1.2,12.1,1.9,18.1.5,4,5.6-1.8,6.8-2.4,12.5-5.8,32.8-12.9,46-16.8,9.9-2.9,20.2-4.4,30-7.5,1.8-4.5,3-14.8,6.1-18.1.5-.5,11.4-7.1,12.7-7.6,17.4-7.5,66.8,2,85.6,7.2,7.8,2.1,15.4,5.5,23.1,7.9,3.9,1.2,9.4,1.9,13.5,3,2.7,1.7-2.5,26.2-5.5,29.9-4-.8-9-.5-12.8-1.1-21.6-3.6-42.6-8.8-64.1-11.9-42.3-6-110.6,5.3-146.4,30.5-6.1,4.3-11.9,11.2-17.6,15.4h0ZM171,1123.5c.4-.5,7.5-5.8,8.5-6.5,4.2-2.8,12.3-6.9,16.9-9.1,1.2-.5,2-1.3,3.5-.9-2.6,7.4-4.1,15.9-2.9,23.8l2.4.7,30.3-13.3,37.5-9.5c5.4-1.5,1.2-19.2,3.1-23.9,10.7-3.9,22.7-3.5,34-2.9,22.2,1.1,49.3,4.7,70.3,9.7,3.6.9,18.2,3.1,19.1,7l-8.5,23.2c-3.8,0-8.1.6-11.8,0-14.4-1.9-29.4-7.1-45-8-59.8-3.5-96.6,4.7-145.1,38.4-3.3,2.3-6.7,6.1-10.8,7.5-6-1-6.4-31.3-1.7-36.5h0ZM183.5,1211c-3.9.9-2.3-13.6-2.5-16.4-.2-1.9-1.7-3.6-2-6-.3-2.4-.4-11.5.3-13.3.4-1,12.3-10.6,13.8-11.7,4.1-2.7,8.8-4.2,12.4-7.6,2.3-.3,1.1.4,1.4,1.5.7,2.7,4.2,17.5,6.6,17.4l2.1-4.1c7.2,1.6,15-3.4,22.2-5.6,7.5-2.3,15.5-5.2,23-7,3.4-.8,13.5-.9,16.3-2.7,3.3-2.2-3.9-17.7-2.9-21.8,1.3-4.9,7.1-3.1,10.3-3.8,24-4.8,64.5-.7,88.6,5.5,3,.8,9.4,1.9,10,5,.8,4.6.4,22.8-4.7,24.3-13.9-.7-28-.2-41.9-.8-33.5-1.3-59.8-4.6-92.3,7.6-23,8.6-43.8,21.6-60.6,39.4h0ZM265,1459.5c-23.4-19.7-20.4-57.5-33.2-81.8-5.1-9.6-12.7-17-19.1-25.4-4.2-5.5-7.5-5.3-5.1-14.4,8.7-33.2,76-48.2,104.8-36.7,1.5.6,3.1,1.8,2.8,3.7h-21.5c-.5,0-2.7,1.6-4.2,1.8-12.8,1.9-25.8,4.7-37.4,11.3-3.5,2-17.1,12.1-19.2,15-2.9,4-3.7,9.2-2.2,14,1.6,4.9,12.2,17.6,15.6,23.4,16.4,28.7,8.3,51.9,39.1,74.9,13.3,10,30.6,12.6,45.8,18.2,5.9,2.2,8,7.6,16.1,5.4v-72.5c2.2-7.8,3-15.9,4-23.9.5-3.8,4.1-5.8-3.5-7.6l-32.5,12.6c-10.1,3.8-21.5-10.6-23-19.1-3.1-18.5,11.4-32.2,27.2-38.3,12.4,10.7,21.5,28.6,34.7,38.4,3.4,2.5,10.8,4.1,12.6,6.4,3.6,4.3.2,6.5-.4,9.8-3.2,19.9-5.6,44.7-4.3,64.8,1.2,19.7,11.2,38,10.9,57.4-1.4.8-13.5-1.8-16-2.3-24.3-5.9-73.6-19.5-92-35h0ZM553.7,1573.8c-3.3-.5-12.9-9.8-17-12-17.2-9.7-43.8-14.5-63.1-18.9-39.5-8.9-81.1-18.6-123.1-15.9-7.8.5-16.8,6.1-22.4-2.5,4.2-2.4,5.5-14.1,9.7-15.3,6-1.8,10.8,1.4,15.8,1.8,37.5,2.9,73.1,3,110.3,8.7,27.7,4.3,55.5,10.8,82.5,17.5,4.2,1,14.2,4.1,17.7,6.3,1.5.9,6.1,5.2,6,6.7-2.1,6.3-7,25-16.1,23.5h0ZM735.1,1671.6c-.5,3.3-.7,15.1-2,16.8l-3.1.6v-72.5c-.2-1-1.9-3.5-3.3-3.4-2.5.2-15.3,10.3-18.8,12.3-19,10.9-68.5,18.4-91.4,20.6-2.9.3-6,0-8.8-.1l-1.2-.8c-3.5-4.9,8.7-34.1,11.7-40.4,12.9-27.3,35.3-50.1,60.7-66.3,26-16.5,32.5-15.1,62.6-16.4,14.9-2.9,29.7-.5,44.5,2,.9,3.7-2.4,3.6-4,5.5-12.3,14.9-17,29.5-23.6,47.4-12.4,33.3-18.1,60.2-23.3,94.7h0ZM841,1827.5c-.3,2.5-2.1,4-2.1,6.5-2.8.2-4.6-3.2-4.9-5.6-1.5-10-1-21.8-2.1-31.9-3-25.9-9.7-66.2-29.9-85.1-8.7-8.1-16.7-9.8-28.6-8.6-3.5.4-4.7,4.1-7.4-.6,3.7-7.9,10.7-9.9,18.4-12.3,4.3,2.3,8.3,2.1,12.8,4.2,6,2.7,13.5,8.7,18.1,13.4,12.4,12.5,18.3,31.7,21.8,48.7,3.9,18.9,6.2,51.8,3.8,71.3h0ZM862,1775.5c-2.5-1.2-4.1-13.6-4-16.8.5-2.1,16.2-.5,19.5-.7,28.1-1.5,61.7-7.1,88.7-15.3,6.4-1.9,13.2-4.6,19.2-7.6,1.1-1.2.9-7.8.7-9.6-3.1-23.1-10.4-52.1-23.7-71.9-.5-.8-.4-1.7-.4-2.6-1.8-1.9-4.2,5.4-5,6.5-9.3,12.5-21.5,23.8-27,38.3-.3.9,0,2.2,0,3.2-4.5,1-5.7-3-8.5-5-29.3-21.2-36.8-48.3-57.1-75.9-5.6-7.7-13.5-14.4-18.8-21.2-.8-1-7-12.8-7.2-13.9-.3-1.4.4-10.8.7-12.5,2.3-13.4,14.1-25.5,24.5-33.5,1-1.8.7-3-1.2-3.9-3.3-1-6.6,3.5-8.8,5.6-1.1,1-3.1.5-4.1,4.4l-1.9-1.9c-10.9,6.5-19.3,16.2-26.5,26.5-5.3,7.5-11.9,17.8-15.7,26.3-4.2,9.3-5.8,19.7-10.1,28.9-.7,1.4-4.2,8.5-6.2,6.9-1.1-1.2-7.2-21.2-10-14.9l-2,9.4c-9.2-.8-8.8-8.9-7.9-16.4,4.3-35.9,22.2-79.8,53.2-100.8,9.6-6.5,27-7.4,38.3-5.8,46.8,6.5,102.5,35.5,133.8,71.7,20.6,23.8,34.6,60.9,44.3,91.2,1.3,4.1,2.9,15.1,4.5,18,.3.5,2.4,1,3.3,2.2,2.9,3.5,6.8,9.3,7.3,13.8.5,4.2-7.2,21.2-9.4,26.1-6.9,15-18.9,39.3-35.2,44.8-17.2,5.8-30.1,5.9-47.7,7.3-29,2.3-60.2,4.2-89,0-3.4-.5-7.1.7-10.5-.5h0ZM949.8,1994.3c-.7,3.8-9.5,10.1-12.3,12.8-3.6-.5-3.9-4.6-5.5-6.5-16.2-19.5-34.2-48.5-45.8-71.2-3-5.9-11.7-24.5-13-30-.7-2.9-.8-17.8-.2-20.7.3-1.3,1.8-3.6,2.9-4,1.2-.4,12.2.4,14.1.9,1.3.4,7.9,3.4,7.9,4.1-.9.8-1.8,1.8-2,3-2.7,19.1,18.8,50.3,28.4,67,8.2,14.2,16.2,28.5,25.4,42.2.2.8.2,1.7,0,2.5h0ZM1082,1762.5c-.4,11.8-4.7,22-7,33-3.4,15.8-5.3,40.1-15.6,53.4-5.7,7.3-13.1,5.3-22,5.1-21.4-.5-42.7-1.2-63.9-2.1-33.4-1.4-67.6,3-100-4-1.1-.2-6.4-2.7-6.5-3.5l2.5-2.5,106.5-5.4c1.4-.9,1-2.5.8-3.8-1.8-10.7-15.5-22.5-22.3-30.8l-.5-3c4.5-2.4,9-1.4,13.4-2.1,15.1-2.3,45.4-7.7,58.2-15.3,8.5-5.1,10.5-14.5,14.3-22.2,3.3-6.7,8-13.1,9.6-20.4l10.4-15.6c4.3-2.8,9.8,9,11.4,11.2,8.2,11.2,11.2,12.5,10.7,27.9h0ZM1387.5,1368c13.3.5,27.1-2,39.6-6.5,6.4-2.4,11.8-9.9,18.8-5.3,1.3,1.5-2.4,15.9-3.1,19.1-2.6,11.7-5.5,25.3-10.3,36.7-.9,2.2-4,9-5.3,10.4-2.1,2.4-11.1,1.4-14.5,1.8-4.6.5-9.6,3.5-14.6,1.4l-19.6-57.5c1.6-2.2,6.5,0,9,0h0ZM1373.5,1406c10.2,10.2,6.9,47.9,3.2,61.2-.5,1.9-6.6,20.5-10.7,16.8-.4-1.1,1-2.2,1-2.5,0-18.6-2.8-53.5,0-70,0-.5,3.1-7.4,3.5-7.5,1.4-.2,2.2,1.1,3,2h0ZM1139.1,1313.9c-.7-6.6,4.2-7.4,9.4-9l9.6,9.5c-.7,3.3-15.9,1-18.9-.5h0ZM1175,1407.5c.1-8.5-1.8-30,2.9-36.1.9-1.1,3.4-1.9,4.8-2.2,6-1,7.2.6,10.7,4.8,8.6,10.3,11.4,22.1,9.6,35.5-.2,1.5-2.7,8.5-3.5,9.5-1.6,1.8-9,5.6-11.6,6.4-.9.3-9,2.1-9.5,2.1-7.2-.2-3.5-15.7-3.4-20.1h0ZM1211.1,1485.6c-.6,5.7-3.4,13.3-4.4,19.1-4.8,8.1-15.2,8.3-18.4-1.5-4-12.2-5.1-31.2-7.3-44.7-.7-4.4-3.4-11.4-4-16-.8-6.8-1.3-11.6,6-13.1,11.4-2.4,20.1,2.6,23.8,13.4,3.1,9.3,5.4,33,4.4,42.8h0ZM1208.5,1366c-3.5-2.9-11.1-8.4-15.2-9.8-2.3-.8-7.4.6-8-2.9-.2-.9,2.8-7.8,3.4-9.2,21.4-46.2,75.4-52.8,117.3-29.5,11.4,6.4,15.7,17.3,24.4,26.1,11.8,11.8,21.5,19.3,32.7,32.8,3.5,4.3,9.9,7.1,8,13.8-.2.6-3.2,2.4-3.7,2.5-2.3.3-18.8-9.7-23.3-11.3-13.7-4.7-49.6-5.2-64.5-3.6-14.1,1.6-26.3,14.5-38.6,20.6-12.1-8.2-21.3-20.3-32.5-29.6h0ZM1343,1428.5c-.3-7.1-3.9-24.6-1.3-30.2.4-.9.9-1.7,1.9-2.1,2.1-.7,9-.4,10.8.9,5.4,4,3.1,31.9,3.6,39.4.2,2.9,1.7,5.6,2.1,8.9.2,2.7.8,13.4-1.7,14.3-4.1,1.5-14,1.7-15.1-3.5-1.6-7.2.2-19.8-.2-27.8h0ZM1328.5,1458h-17.5c-.7-9.4-.8-19.1-2.1-28.4-1.7-12.3-8.8-28-1.7-39.4l1.3-.3c8.7-1,12.8,2.3,19.6,6.7l4,40.8c-.3,3.6,1.6,20.5-3.5,20.5ZM1260,1445.5c-2.3-10-6.9-18.5-10-28-1.1-3.2-2.8-7.1-1-10.1,1.2-2.1,20.1-14.5,22.8-15.2,4.4-1,12.7,1.9,14,6.4.5,1.5,0,3.3.3,4.7,2.3,8.9,2.2,17.4,4,26,.6,2.9,3.4,8.3,3.9,11.1.3,1.7,1.3,15.6.9,16.3-.9,1.4-31.8,2.3-32.9.4-2.3-3.6-1.1-8.1-2-11.8h0ZM1295.9,1489.4c-1.3,11.5-3.4,29.2-6,40-2.1,9-3.3,15.2-13.5,15.6-6.6.3-9.1-4.2-11.4-9.6v-62.8c3.8-5.1,9.8-2.8,14.4-3.7,5-.9,10.9-7.6,17.3-1.8.6,1-.6,19.6-.9,22.2ZM1310,1541.5c-3,3.7-11.7,5.9-11,0l5.7-17.4c4.4-17.2,5.2-34.8,6.5-52.5,1.4-4,5.4-2.1,8.2-2.8,1.7-.4,3-1.5,4.3-1.7,3.5-.7,8.9-.1,9.2,4.2.1,2.3-2.4,14.7-3,18-3,15.2-9.9,40-19.9,52.1h0ZM1331.1,1522.7c.4-10.1,5.8-22.2,7.9-32.2.5-2.6-.2-5.7.3-8.7,1.1-6.5,5-11.1,11.5-12.4,3-.6,7.4-.6,8.8,2.8.4.9-1.4,6.6-1.9,8.1-2,6.8-17.8,39.7-22.2,43.8-2.5,2.4-4.6,3-4.4-1.4h0ZM1464.1,1728.4c-18-7.8-37.6-23-55.5-32.5-16.3-8.6-33.1-16.1-50.4-22.6-4.2-1.6-19.2-4-19.2-9.8v-17.5c3.7-.1,4.8,3,8.7,3.8,14.4,2.7,23.8-7.3,34.8-13.8,3.8-2.2,9.3-3.7,12.4-5.6,5.6-3.4,4.4-8.5,14.3-6.1,3,.7,9.2,5.2,11.5,5.6,1.9.3,3.9-1.1,5.3-.4,3.3,1.5,1.7,8.8,2,12.1,1.1,10.9,17.4,19.2,14.9,30.9-.8,3.7-3,4.7-1.7,9.9l12.4,19.1c.7,6.4,13.1,21.2,13.4,26.1.1,2.5-1.3,1.7-3,1h0ZM1642.4,1813.1c9.1,13.6,17.4,27.8,26.8,41.2,1.4,2,10.6,11.8,8.8,13.7-1.9.4-2.4-1.1-3.5-2-18.1-14.9-29.8-35.4-43.9-53.6-6.2-8-13.9-15.4-20-23.5-20.4-27.1-56.7-89.7-60.5-122.5-.4-3.2-.6-15,.5-17.4,1.6-3.8,10.6-7.9,14.3-5.8,4.2,2.4,1.3,27.4,2.2,33.3,6.2,44.8,50,98.6,75.5,136.5h0ZM1710,1650c-6-.3-12.5.5-18.4,0-33-2.9-70.9-15.9-104.2-22.8-11.5-2.4-24-2.4-34.7-5.1-.3,0-2.4-3.3-5.8-2.4l-5.9-57.6c.3-.3,7.8,1,9.2,1.3,13.4,2.8,26.2,7.2,39.5,9.5,25.1,4.3,51.2,5,76.8,7.2,5,.4,10.3-.5,15.3.2,6.6,17,15.8,33,22.6,49.9,1.3,3.2,5.1,11.8,5.5,14.5.3,1.8,0,3.6,0,5.4h0Z"/>
    <path class="st1" d="M1012.8,13.8c26.6,2.9,62.8-2.4,87.8,7.1,25,9.6,46.1,47.5,61,69,6,8.6,13.2,16.2,18.8,25.2,3.2,5.1,12.3,21,12.5,26.4,0,1.6-2.5,11.8-3.2,13.7-.9,2.6-10.8,21.6-11.9,22.1-7.3,3.2-15.2,2.2-22.9,3-11.4,1.2-18.6.5-28.5,7.5-2.5,1.7-4.1,4.1-6.3,5.7-7.4,5.1-17.7,8-26.5,9.4l-35.7-17.2-16.8-.2c-6.5,3.7-13.6,1.8-16.7,10.3-1.6,4.3.6,10.4,3.4,14,2,2.6,4.6,1.4,6.3,3.9l-2.4,6.4c-.9-.2-2.4.5-2.5-.5-.4-2.9,3.6-2.9,2-4.5-1.2-1.2-4.8,3.7-6.1,4.4-5.3,3.2-15-.9-20.5-1.3-13.1-1.2-41.3-1-52.7,5.2-4.4,2.4-7.4,11.4-6.3,15.8.4,1.5,4.7,11,5.7,12.3,2.4,3,8.9,5.8,9,10.2,0,5.2-7.4,4.1-10.1,7.2-.4.5-2.9,5.3-3,5.9,0,.6,0,8.6.2,9.6.6,4.5,7.2,12.7,11.5,13.6,1.2.3,8,.2,9.5,0,11.2-1.8,31.7-16.7,42.8-22.3,8.4-4.2,17.3-7.2,25.9-11.1,3.2-1.4,7.1-4.8,10.1-5.9,5.4-2,12.3-.8,18-2.5,1.6,1.4-8.3,10-9.5,11-5.4,4.2-22.7,12.8-25,18-1.8,4,7.3,9.7,1.6,14.5-9.8,4.4-21.4,7-30.8,12.2-16.7,9.2-19.3,29.1-2.8,40.2,2.6,1.7,15.1,4.9,14.5,7.5-4.1,3.8-8.4,7.8-12,12-2.4,2.9-6.5,8.1-8.8,11.2-7.5,9.8-11.7,15.8-6.7,28.4,5.2,13,17.7,5.3,27.9,5.1,3.5,4.7,3.3,9.9,8.7,13.4,16.6,10.7,26.4-.8,35.4-13.5,4-5.6,13.4-24.7,19.3-26.7,5.3-1.8,3.9,1.5,5.8,3.7,5.1,6.1,10.2,14.1,17.7,17.4,5.7,2.4,9.7,3.5,15.3.7,37.5-18.4-13.3-77.5,2.4-98.4.3-1.2,1.3-.7,2.1-.1,1.3.9,7.9,8.5,8.9,10,3.7,5.6,5.6,11.9,11,17,1.1,1,11,8.1,11.7,8.3,9.6,2.9,17.1-7.4,19-15.6,4.9-20.8-7.4-38.8-9.4-58.9-1.7-16.4-1.9-35.8-.7-52,.3-4.8-2.2-4.9,1.8-10.4,4-5.4,12.7-10.1,16.9-16.1,3.1-4.3,6.4-15.7,8.8-18.7.4-.5,2.6-.2,4.3-2.2,5.6-6.6,7.8-17.5,14.5-22.6,3.8-2.1,7.1,8,8.1,11,10.8,34.5,14.8,73.2,16,109,.1,3.2-2.6,7.1,1.5,10.5,3.4-5,1.3-11.4,1.7-16.2.6-6.4,4.4-15.2,4.7-21.4,1.2-19.6,1.3-37.3-2.3-57.6-1.5-8.2-4-16.1-5.6-24.2l2.3-1.4c4.3.9,8.8,4.4,12.4,5.6,19.3,6.4,35.3,7.8,54,18,32.8,18,31.1,32.1,48.9,60.1,11.3,17.9,25.6,30.8,41.4,44.6,8.8,7.7,21.6,14.6,28.4,24.5,7,10.2,12.8,38.9,12.3,51.1-.2,4.8-2.1,11-6.4,13.7-15.1,9.4-35.4,20.9-52,27.1-4.1,1.5-9,1.9-13.4,3.6-16.7,6.2-32.3,22-50.9,23-7.4.4-8.8-4.7-13.8-7.3-3.2-1.7-7.7-1.8-10.8-3.2-3.8-1.6-12.3-8.3-15.9-8.1-9.9,3.6-21.5,7.3-30.9,12.1-13.3,6.8-20.7,16.2-13.7,31.4,1.7,3.7,8.5,11.1,12.6,11.5,1.8.2,3.5-.9,4.9-.8,20.9,1.2,55.3,8,70.4,23.4,13.3,13.6.5,24.6-13.7,28.1-18.2,4.5-26.8-4.7-43.7-4.2-3.6.1-11.7,1.2-14.8,2.7-6.4,2.9-9.9,18.4-4.4,23.5,2,1.8,13.6,7.5,16.7,8.8,5.1,2.2,23.7,4.1,14.5,13.5-8.4,8.6-25.9,14.5-34.5,24.5-9.8,11.3-5.2,24.3,7.6,30.4,2.3,1.1,13,4.8,15.1,4.8,2.2,0,7.2-3.4,10.3-4.3,15.7-4.5,23.2-2.2,38-13,12.7-9.3,28.6-22.4,37-36,7.8-12.6,9.4-33.1,29.3-25.2,6.2,2.5,10.2,5.2,18,4.5,7.9-.7,18.4-10,25.2-13.8,1.8.1,2.6,1.3,3.2,2.8,2.5,5.6,2.8,14.1,5.5,20.5,2.1,4.9,8.6,15.9,12.2,19.8,7.7,8.3,21.2,17,32.8,13.7,10.2-2.9,9.6-8.2,13.5-16.5,2.6-10.8,3.2-22.5-1.8-32.8l2.5-1.5c3.4,2.2,5.3,7.5,8.6,9.4,4.3,2.5,10.5,2.2,15.4,5.6,1.6,1.1,10,9.6,10.9,11,1.7,2.7,4.9,17.4,4.1,20-1.4,4.8-4.9,5-7.2,7.3-4.7,4.7-13,12.8-14.1,19.4-1.2,6.9,3.5,18.7,10.7,20.8,6.8,2,20.1.5,27-1,4.9-1.1,11.3-6.8,16.6-2.5.8,1.2-3.2,15.5-3.6,18.5-.5,4.5-1.5,22.6-.3,26.2,3.1,9.5,13.1,3.4,18.7,15.4,5.3,11.3,7.1,27.8,21.6,31.4,3.7.9,12.4,2.8,15.1,0,.4-.4,4.6-9,5-10,1.8-5.3,6.4-26.1,6.7-31.2,0-.9-3.8-16.2-4.4-18.1-1.3-4-5.9-7.5-3.8-12.2,2.2-3.3,5.5,4.4,7,6,6.9,7.4,29.9,23.4,29.5,2.5-.2-7.7-6.6-15.4-10.2-21.8-2.1-3.7-2.9-7.6-5.5-11.4-2.2-3.3-5.2-4.2-6.7-9.4-2.4-8.9-.1-11.8.3-19.4.8-12.8-9.4-43.6-17.5-53.5-2.7-3.3-12.2-10.8-13.1-14-.6-2.1,3.3-19.1,4.6-20.5,8-8.7,14.3,18.8,16.2,22.8,1.3,2.7,5,8.7,6.8,11.2,2.4,3.2,13.1,12.7,13.9,15.2,1.1,3.7-2.6,4.3-2.9,6.8-.2,1.9,1.3,4.2,1,6.9-1.2,10.1-4,18.9-3.7,29.8,0,2.7,1.4,8.7,3.3,10.7.4.4,6.7,4.8,7.1,4.9.4,0,7.5-.4,8-.6,1.2-.4,4.9-3.2,5.8-4.3,2.5-3.2,3.3-11.7,8.5-9l-1-12c1.4.4,3,3.8,3.5,5,3.1,8,.9,8.3.7,14.8,0,2.3,1,4.3.8,6.7-1.3,17.9-9.6,47.6,6.7,60.5,9,7.1,23,10.7,30.1-.6l6.7-16.3,22.6,35.4c5.7,6.4,20.9,7.3,24.3-1.4,1.4-3.7-.4-4.9-.4-7.6,0-7,.6-14.1-.3-20.9-2-14.3-10.3-26.7-13.8-40.5,2.6.3,3.9,2.3,6.7,2.8,4,.7,12.8,1.7,17,2,15.1,1.1,30.3-10.5,17.6-24.6-9.5-10.5-20.5-12.3-32.1-17.9-15.4-7.5-21.1-25.6-30.9-39.1-2.8-3.9-7.8-10.7-10.9-14.1-3.3-3.7-10.1-5.4-7-12,1.8-3.7,4.8-.4,7.1-.3,9.4.4,21.6-2.6,30.9-1.7,2.1.2,12.6,2.9,14.2,3.8,3,1.6,10.2,14.8,13.4,18.6,7.2,8.6,21.6,20.8,33.4,20.7,8.3,0,6.3-15.2,4.4-20.5-3.6-10.1-15.6-15.2-18.9-25.5.9-.8,7.8,1.6,9.3,2.2,13.6,5.4,30.9,24.1,45.1,23.7,3.3,0,14-2.3,13.1-7-.2-.8-3.8-8.3-4.5-9.5-7.5-12.5-25.8-27.5-39.5-32.5-10.8-4-34.4-6-40.9-14-2.3-2.8-3.5-7.1-5.7-9.3-8.1-8.3-38.9-16.5-50.4-16-17.4.6-34.1,10.5-50.3,12.2-6.8.7-35.5-1.4-41.3-4.1-3-1.5-16.3-13.5-19.4-16.6-2.2-2.2-3.8-5.7-6-8-3.6-3.8-7.8-6.8-11.5-10.5,0-3.4,12.6-1.6,14.5-1.7,11-.8,21.7-2.3,10.5-14.3-6.8-7.3-34.4-22.2-44.3-26.7-19.4-8.8-30.2-5.3-46.2-22.8-1.4-1.5-11.6-14-10.5-15,2.4,0,4.9-.3,7.3.2,10.1,2.1,23.3,7.2,32.7,11.3,2.4,1,6.1,1,8.4,2.6,2,1.4,2.6,4.4,4.6,6.4,8.7,8.8,20.6,8.2,30.7,13.3,12.8,6.4,19.1,18.2,28.3,27.7,6.6,6.8,18.9,15.8,23.5,2.5,4.9-14-1.2-22.6-10-33-1.7-2-6.4-4.1-5.5-6.5,1.2-3,5.4.3,7.6.5,8.5.6,19.9-1.6,28.7-.6,3.3.4,18.4,7.8,21.9,9.9,20.2,12,21.7,52.7,55,47.5,6.8-1,7.9-5,8.5-11.3.7-6.8-.8-16-.8-22.9,0-1.1.6-6.3,2.5-5.5,6.4,2.8,17.2,28.4,21.3,35.7,6.6,11.5,14.6,25.2,27.4,30.6,5.5,2.3,14.4,3.5,19.7.1,5.9-3.7,1.2-17.6,7.6-18.5,4.1-.5,6.2,3,9.6,4.3,4.4,1.8,27.3,8.1,31.5,8.5,5.3.4,15.4-1.6,17-7.5,2.3-8.2.2-26.5-7.8-31.7l-33.9-22.1c-2.7-3.8,1.2-3.3,3.8-2.8,16.4,3.2,32.2,8.6,47.7,14.4,18.1,6.8,34.9,14.9,54,18,1.8.3,3.4,1.8,4.9,1.7,1.4-.1,6.9-2.8,7.7-4.2,4.2-6.7,1.3-14.4-2.6-20.5-2-3.1-9.9-9.6-10.7-11.3-.6-1.3-.3-2.4.5-3.5,1-1,12-2.1,14.3-2.2,6.4-.2,14,1.2,20.7.7,5.1-.4,11.4-1.2,15.3-4.7,4.2-3.8,7-11.3,7.3-16.8.3-6.1-18-18.8-23.6-20.9-16.9-6.3-31.7-4-48.7-4.5-1.9,0-15.6-.9-16.5-1.3-7.4-3.7,1.3-18.7-.3-24.8-1-4-8.8-11.7-12.5-13.5-21.6-10.2-46.7,13.4-67.2,6.2-2.5-.9-16-8.1-16-10,.9-1.5,1.9-1.4,3.4-1.5,11.8-1.3,41.7,5.4,49.1-3.9,3.6-4.5-1.2-10.2-4.6-13.5-1.8-1.7-6.2-2-5.9-5.6l43.7-13.3c8.6-8.6,4.4-14.3,1.4-24,5.7-10.9,25.6-18.5,15.9-33-4.7-7.1-18.2-4.6-22.6-7.6-3.7-2.6-1.2-6.2-1.8-9.1-1.2-5.1-6.7-10.7-12.2-10.9-14.9-.6-29.9,8.7-40.9,17.9-4.2,3.5-8,10.3-14.5,12,3-15.9.7-38.3-20.9-28.4-10.8,4.9-20.4,23.3-28.7,32.3-1.9,2-10.7,10.7-12.9,10.1-3.3-5.5-3-12.6-5.5-18.5-5.1-12.1-14.3-8.3-25.1-8.9l-2.8-11.9c2.3-1.1,4.9-4.4,6.5-5.4,7.6-4.8,17.8-6.9,25.8-11.2,4.3-2.4,14.1-8.9,15.3-13.8,1.4-5.7-13.2-15.2-11.7-19.6.4-1.4,17.8-10.8,20.8-13.2,1.4-1.1,1.9-2.7,3.1-3.9.9-.8,2.7-.8,4-2,7.4-7.3-1.1-24-8.7-28.4-2.1-1.2-13.7-4.3-15.8-4.1-3,.2-15.7,7.7-16.5,7-.2-11.5-4.5-17.1-16.5-17.1-13.1,0-26.6,18.3-33.2,18.9-4.4.4-7-14.8-9.3-16.4-3.8-2.7-11.7,6.7-13.5,9.6-8.3,13.3-5.1,34.2-18,45-6,0-15.3-32.7-18.3-38.8-4-8.3-9.3-12.5-18.8-13.2-8.2-.6-13,10.1-14.9,16.9-2.2,7.9-1.2,12.3-1.5,19.4-.1,2.2-1.6,4.8-1.8,7.2-.5,5.5-.3,29.7-2.6,32.4-.7.8-13.5,4.6-16.2,5.8-19.3,9-24.8,23.4-37.3,37.7-9.2,10.6-11.8-4.4-17.8-5.4-2.5-.4-11.2.9-13.8,1.8-4.2,1.4-12.8,7.8-15.9,11-8.8,8.8-7.1,17.7-22.5,20.5-32.6,5.9-62.5-11-94.3-13.7-7-.6-22.9-6.3-29.1-10-10.1-6-17.2-16.2-26.2-23.8-24.6-20.6-57.9-31.3-85.4-48.6-27.2-17.1-68-62.4-81.3-91.7-3.5-7.6-8.6-18.8-4.8-26.7h-184v5.5s31.8,8.3,31.8,8.3h0ZM1506.9,376.6c.3,5.8-12.3,18.8-14.7,26.1-1.7,5-1.8,12.8,2.1,16.9,3.3,3.5,16.5,7.9,17.5,12,.5,1.9-6.8,16.5-7.8,19.8-4,13.5-3.7,25.5,10,32.9,4.7,2.5,15.7,3.3,17.8,7.2,2.2,3.9,2.6,17.7,4.6,23.4,1.8,5.4,9.6,15.8,10.3,20.7,1,6.4-4.9,6.6-9.3,3.3-13.3-10.1-24-24.9-39.6-34.4-11.5-7-19.9-8.7-31.9-13.1-20.4-7.5-32.5-24.6-25.7-46.7,3.3-10.7,9.6-27,9.7-38.3.2-22.7-5.6-49.2-8-72v-12c1.2-.8,5.8,1.1,7.3,1.8,7.5,3.3,30.3,16.6,36.2,21.8,2.9,2.6,18.4,21.3,19.7,24.3.7,1.6,1.7,4.7,1.8,6.3h0ZM1374,220c8.7-.2,16.5,4.1,24.7,5.8,30,6.2,60.8,6.7,90.7,10.4,12.4,1.5,8.8,6.1,15.2,9.8,3.8,2.2,11.4,3.8,16,6,18,8.2,28.7,24.5,46.9,32.2,3,.3,9.6-2.2,10.9-5,4.4-9.8-13-25.5-10.5-28,9.3-.1,17.8,5.1,24.5,11,3.4,2.9,6.2,7.6,9,10,5.3,4.7,17,8.8,20,16,1,2.5,3,13,2.3,15.3-.4,1.3-6.8,8.4-8.3,9.7-3,2.6-7.6,4.3-10.4,6.6-8,6.7-15.4,16.7-25.4,20.6-23.7,9.2-72.4-8-94-20.4-28.2-16.2-93.4-60.4-107.9-88.1-1.9-3.7-4.4-7.3-3.8-11.7h0Z"/>
    <path class="st1" d="M1487.6,93.9c5.8.7,12.5.5,18.4,1.1v-2.9c-1.7-.6-3.7-.7-5.2-1.4-40.7-18.9-77.8-35.5-108.3-69.7-5.5-6.2-12.3-13.5-15.5-21h-43l21,19.5c33.2,40.2,80.6,68.6,132.5,74.5h0Z"/>
    <path class="st1" d="M1418.8,591.7c-5.4-12.7-3-27.2-13.8-37.2-5.4-5-15.4-2.1-22.2-.2-5.8,1.6-13,5.7-17.3,9.7-4.8,4.5-10.3,12-15,17-5.8,6.2-18.1,16.6-21.4,23.7-1.8,3.8,0,13.8,3.5,16.2,9.5,6.7,14.8-4.8,20.9-5.9,2.1-.4,2.4,2.9,2.3,4.3,0,.6-5.9,9-6.8,10.2-7.4,10.1-29.8,31.2-22.8,44.9,6.8,13.3,17.6-5.3,24.1,3.9,5.6,7.8.8,13.2.7,20.3,0,6.9,4.5,21.5,10.7,25.3,2.3,1.4,14.9,5,17.4,4.7,6.3-.7,16.8-10,20.6-15,6.4-8.6,9.9-20.4,10.5-31.1.2-3.9-2.2-16.1.9-18,1.5-.9,2.3-.5,3.6.5,2.7,2,7.2,11,10.9,14.1,1.4,1.2,8.3,4.9,10.1,4.9,4.9.2,13.1-9.9,13.2-14.4.2-6.7-6.7-29.3-9.3-36.5-5.2-14.4-14.8-27.5-20.7-41.3h0Z"/>
    <path class="st1" d="M621.8,748.8c.4-2.5,2.2-4.9,2.3-7.3.5-9.3-17-10.8-16.9,1.2,0,4.8,10.3,8.4,14.5,6.1h0Z"/>
    <path class="st1" d="M663.7,725.7c5.3-14.8-14-17.2-14.7-5.2-.5,9.5,12.9,10.1,14.7,5.2Z"/>
    <path class="st1" d="M649.3,759.8c7.7-2.3,2.6-17.6-4.6-16.6-8.4,1.2-9.1,20.6,4.6,16.6Z"/>
    <path class="st1" d="M622.8,715.8c13.3,1.6,10.7-18.1-1-14.6-5.6,1.7-7.5,13.6,1,14.6Z"/>
    <path class="st1" d="M590,702.4c11.6,6.8,15.8-14.2,1.7-14.3-4.7,2.3-6.7,11.4-1.7,14.3Z"/>
    <path class="st1" d="M609.5,766c-9.1-1.5-7.9,6.5-7.3,12.9,11.5,8.4,17.3-11.2,7.3-12.9Z"/>
    <path class="st1" d="M634.8,787.8c10.8,2.8,8.5-14.5,1-12.6-6.6,1.7-8.6,10.6-1,12.6Z"/>
    <path class="st1" d="M1583.1,1590.4c-3-2.7-9.6-12.8-13.6-12.4-5.9.6-7.1,11-6.6,15.6,1.4,12.8,23.2,18.8,33.9,14.3,3.3-14.1-6.7-11.1-13.8-17.5h0Z"/>
  </g>
</svg>