<?xml version="1.0" encoding="UTF-8"?>
<svg id="Layer_2" data-name="Layer 2" xmlns="http://www.w3.org/2000/svg" viewBox="0 0 349.49 449.46">
  <defs>
    <style>
      .cls-1 {
        fill: #fff;
      }
    </style>
  </defs>
  <g id="Layer_1-2" data-name="Layer 1">
    <path class="cls-1" d="M258.53,242.51l-126.77-25.2c-1.5.94.66,10.93,1.11,12.93.44,1.94,2.02,8.77,3.26,9.63,20.39,7.49,40.77,15.11,61.29,22.24,13.62,4.74,28.1,8.65,41.49,13.68.96.36,2.51.71,3.04,1.6.22,3.76,2.73,8.4,3.17,11.79.11.8.06.88-.76.75l-77.62-26.29c5.41,5.06,13.22,8.09,19.92,11.27,17.2,8.17,35.74,14.18,52.61,22.15.63.3,1.98.75,2.14,1.43l-18.8,118.79c-24.72-7-48.8-19.19-70.98-32.04-27.51-15.93-80.53-51.04-93.97-79.81-2.13-4.55-2.37-9.69-3.84-14.46,12.01,2.7,23.37.37,32.99-7.22-1.51,8.58-4.95,17.24-6.47,25.76-1.27,7.18-.75,8.65,4.14,13.96,17.24,18.7,53.73,42.44,76.41,54.57,2.98,1.59,7.65,4.29,10.65,5.35.78.27.61.61,1.37-.36-19.65-43.45-43.9-85.2-75.18-121.29.41-7.8,3.38-15.3,4.47-23.17,2.85-20.71,1.23-43.87-3.54-64.14,13.65,1.92,27.83.88,41.34-1.71,39.85-7.66,75.92-31.52,98.13-65.32,1.29-.04,6.68,22.36,7.22,24.74,7.99,34.78,11.28,70.38,12.61,106.01.05,1.47.73,2.86.53,4.36Z"/>
    <path class="cls-1" d="M183.58,82.82c8.78,8.37,15.82,19.51,20.73,30.58.5,1.13,3.64,8.52,3.44,8.96-6.03,6.78-13.56,12.13-21.27,16.9-25.98,16.07-56.2,24.5-86.95,21.27-6.81-17.49-20.55-35.81-41.6-33.03,3.55-9.87,7.94-19.36,14.23-27.79,26.5-35.49,76.55-50.12,111.4-16.89Z"/>
    <path class="cls-1" d="M206.45,423.54c-1.9,5.63-5.45,10.22-9.79,14.18-18.5,16.88-41.26,13.6-61.71,2.4-30.72-16.83-54.3-44.31-80.6-66.88-5.84-5.01-13.99-10.18-19.1-15.45-2.72-2.81-3.46-5.61-2.16-9.41,1.56-4.55,15.12-19.93,19.24-23.05.86-.65,5.51-3.48,6.16-3.17,5.44,9.33,12.59,17.58,20.6,24.79,7.23,6.5,16.07,13.51,23.78,19.54,30.95,24.19,65.72,45.71,103.59,57.05Z"/>
    <path class="cls-1" d="M267.33,51.22l11.82-3.66c.44-.57-10.2-9.3-11.1-9.3l-.76.26c-3.65,6.36-8.93,8.72-16.24,8.01-7.67-.74-14.68-6.21-21.47-9.47-34.33-16.52-80.65-17.48-114.75.11-6.35,3.27-15.32,10.8-22.56,9.84-5.21-.69-6.57-6.25-12.95-1-11.19,9.22-19.39,27.09-25.05,40.2-7.78-1.86-14.28-1.9-21.6,1.58,10.25-26.62,28.87-49.79,53.47-64.36,50.68-30.02,119.17-32.15,169.75-.83,24.72,15.3,43.39,39.3,53.96,66.24-3.58,2.85-13.68,8.42-17.24,3.79-4.79-11.57-11.44-22.16-18.94-32.11-1.08-1.44-7.26-8.02-6.35-9.29Z"/>
    <path class="cls-1" d="M49.7,98.11c-2.76,7.22-4.54,14.85-5.59,22.52-.81,5.9-2.33,16.64.05,21.96s6.46,4.1,10.35,6.67c8.48,5.6,15,24.2,17.21,33.84,5.63,24.54,5.77,68.91-12.21,88.57-8.34,9.12-18.27,8.76-29.07,3.78-1.46-.67-10.94-6.7-11.16-7.41-.35-1.12.77-.74,1.28-.77,4.12-.21,6.1-.16,9.56-2.82,17.18-13.22,15.22-55.14,10.66-74.13-2.84-11.82-8.66-30.24-23.34-29.83-.63.02-3.93,1.19-3.32-.23.48-1.12,3.22-3.5,4.11-4.66,2.53-3.29,2.66-3.38,2.59-7.72-.18-10.34,1.35-20.95,3.35-31.22.54-2.75,2.15-11.77,3.42-13.6.58-.83,1.33-1.03,2.16-1.45,2.3-1.14,9.27-4.1,11.57-4.41,3.07-.41,5.38.68,8.37.9Z"/>
    <path class="cls-1" d="M265.24,242l.02-25.55c-1.38-22.46-3.85-44.84-8.43-66.86-2.13-10.21-4.99-20.24-7.57-30.33,7.26,7.94,15.2,15.28,23.47,22.16,5.23,4.35,11.53,9.51,17.1,13.33,3.28,2.25,11.95,6.15,13.85,8.32,2.02,2.3,3.84,14.28,4.3,17.88,1.17,9.2,1.8,19.01,2.15,28.28.21,5.58-4.03,8.4-8.04,11.6-10.85,8.65-24.41,15.13-36.84,21.17Z"/>
    <path class="cls-1" d="M243.07,416.31c7.78-40.37,17.48-80.31,26.25-120.46,6.19-6.52,12.97-12.49,18.87-19.29,1.49-1.72,8.67-10.23,9-11.63.08-.34.22-1.25-.24-1.27l-29.4,24.23c-1.12.46-.8-1.18-.76-1.79.15-2.34,1.08-9.68,1.77-11.64.36-1.02,1.31-1.84,2.1-2.55,6.15-5.47,13.98-10.24,20.36-15.73,3.2-2.76,11.6-10.05,13.63-13.18,2.57-3.98,4.1-17.4,5.6-22.77.15-.53.13-1.56.87-1.44-.25,3.81-.22,7.8-.52,11.6-.52,6.67-1.27,16.66-2.81,22.97-1.28,5.23-4.76,12.06-6.6,17.64-7.31,22.16-14.44,45.67-19.82,68.36-3.78,15.94-4.92,32.49-12.95,46.87-6.24,11.16-15.34,22.21-25.35,30.08Z"/>
    <path class="cls-1" d="M11.93,172.48c2.98-.58,5.14,1.6,6.84,3.76,10.84,13.83,13.57,63.2,3,77.27-6.62,8.82-13.1-1.98-15.82-8.24-6.69-15.38-7.37-40.08-3.85-56.3,1.08-4.98,4-15.34,9.83-16.49Z"/>
    <path class="cls-1" d="M221.41,107.39c-15.18-33.98-44.23-63.61-84.31-60.85-3.55.25-7.06,1.28-10.56,1.82-.54.08-1.68.69-1.56-.27,8.88-4.12,17.79-8.06,27.65-9.22,29.81-3.52,50.52,11.52,66.61,34.84,4.38,6.35,8.2,13.15,10.85,20.41-1.83,3.4-3.34,7.31-5.59,10.45-.43.6-2.2,3.48-3.1,2.82Z"/>
    <path class="cls-1" d="M64.65,283.25c.9-1.9,3.09-2.7,4.4-4.1,8.58-9.12,12.09-24.43,14.01-36.53,4.08-25.77,3.26-86.53-21.55-102.43l-5.62-2.88c12.27-.76,20.07,6.2,25.87,16.15,15.36,26.39,16.92,80.16,5.97,108.26-3.98,10.21-10.81,21.31-23.07,21.53Z"/>
    <path class="cls-1" d="M315.77,267.27c3.75-8.78,5.54-17.66,6.63-27.14,2.07-17.87,1.88-35.68.06-53.56-1.2-11.77-2.99-22.38-7.72-33.27,6.1,4.8,9.14,8.09,11.48,15.59,6.95,22.28,8.08,48.17,3.74,71.06-1.97,10.42-4.49,21.5-14.19,27.32Z"/>
    <path class="cls-1" d="M288.43,136.27c-10.79-9.71-24.02-18.67-33.5-29.67-7.9-9.16-12.42-21.87-17.54-32.73,25.32,11.9,41.95,36.65,51.04,62.4Z"/>
    <path class="cls-1" d="M319.89,139.36c-.45.5-10.81-5.77-11.82-6.48-1.87-1.32-3.59-2.88-4.03-5.25l-2.65-18.64c2.42-.66,4.81-1.5,7.16-2.38,1-.38,4.01-2.18,4.48-2.24.88-.13.98.6,1.24,1.18,1.42,3.25,2.74,10.87,3.42,14.63,1.14,6.34,1.96,12.74,2.21,19.19Z"/>
    <path class="cls-1" d="M341.55,242l2.05-20.38c.31-13.9-.51-27.79-2.57-41.51,4.18,3.97,6.04,10.85,7.06,16.4,2.61,14.16,2.13,33.49-6.55,45.49Z"/>
  </g>
</svg>